<svg xmlns="http://www.w3.org/2000/svg" viewBox="0 0 91.24 91.04"><defs><style>.a{fill:#fff;}</style></defs><title>Untitled-1</title><path class="a" d="M67.64,30.17c2.4,2.4,4.4,4.47,6.48,6.45s1.71,3.44-.14,5.29-3.63,3-5.88.79Q58.35,33,48.67,23.3c-2.37-2.37-1.23-4.18.76-6.14s3.52-1.78,5.3.09c2,2.07,4,4.06,6.3,6.32,6.36-6.36,12.4-12.42,18.46-18.45,1.39-1.39,2.85-2.71,4.29-4C86-1,87.71.28,89.42,2s2.73,3.5.63,5.63L74.16,23.65c-2,2-4.08,4.08-6.52,6.52" transform="translate(0 0)"/><path class="a" d="M23.6,60.87c-2.4-2.4-4.4-4.47-6.48-6.45s-1.71-3.44.14-5.29,3.63-3,5.88-.79Q32.89,58,42.57,67.74c2.37,2.37,1.23,4.18-.76,6.14s-3.52,1.78-5.3-.09c-2-2.07-4-4.06-6.3-6.32-6.36,6.36-12.4,12.42-18.46,18.45-1.39,1.39-2.85,2.71-4.29,4-2.24,2.07-3.93.79-5.63-.88s-2.73-3.5-.63-5.63L17.08,67.39c2-2,4.08-4.08,6.52-6.52" transform="translate(0 0)"/><path class="a" d="M30.17,23.63c2.4-2.4,4.47-4.4,6.45-6.48s3.44-1.71,5.29.14,3,3.63.79,5.88Q33,32.92,23.3,42.61c-2.37,2.37-4.18,1.23-6.14-.76s-1.78-3.52.09-5.3c2.07-2,4.06-4,6.32-6.3-6.36-6.36-12.42-12.4-18.45-18.46-1.39-1.39-2.71-2.85-4-4.29C-1,5.25.28,3.56,2,1.86s3.5-2.73,5.63-.63L23.65,17.11c2,2,4.08,4.08,6.52,6.52" transform="translate(0 0)"/><path class="a" d="M61.07,67.41c-2.4,2.4-4.47,4.4-6.45,6.48s-3.44,1.71-5.29-.14-3-3.63-.79-5.88q9.67-9.75,19.41-19.43c2.37-2.37,4.18-1.23,6.14.76s1.78,3.52-.09,5.3c-2.07,2-4.06,4-6.32,6.3C74,67.16,80.09,73.2,86.12,79.25c1.39,1.39,2.71,2.85,4,4.29,2.07,2.24.79,3.93-.88,5.63s-3.5,2.73-5.63.63L67.59,73.93c-2-2-4.08-4.08-6.52-6.52" transform="translate(0 0)"/></svg>